# MagicaVoxel @ Ephtracy

# material
mtllib BulletTurretHead.mtl
usemtl palette

# normals
vn -1 0 0
vn 1 0 0
vn 0 0 1
vn 0 0 -1
vn 0 -1 0
vn 0 1 0

# texcoords
vt 0.857422 0.5
vt 0.958984 0.5
vt 0.982422 0.5
vt 0.990234 0.5

# verts
v -38 12 -4
v -38 12 -6
v -38 13 -3
v -38 13 -4
v -38 14 -3
v -38 14 -6
v -38 15 -3
v -38 15 -6
v -37 11 -4
v -37 11 -6
v -37 12 -3
v -37 12 -4
v -37 12 -6
v -37 13 -3
v -37 13 -4
v -37 15 -4
v -37 15 -5
v -37 16 -4
v -37 16 -5
v -36 10 -4
v -36 10 -6
v -36 11 -3
v -36 11 -4
v -36 11 -6
v -36 11 -7
v -36 12 -2
v -36 12 -3
v -36 12 -4
v -36 12 -7
v -36 12 -8
v -36 13 -6
v -36 13 -8
v -36 14 -2
v -36 14 -3
v -35 13 -6
v -35 13 -8
v -35 13 -16
v -35 14 -6
v -35 14 -16
v -34 12 -8
v -34 12 -16
v -34 13 -8
v -34 13 -16
v -34 14 -6
v -34 14 -16
v -34 15 -4
v -34 15 -5
v -34 15 -6
v -34 15 -16
v -34 16 -4
v -34 16 -5
v -33 13 -7
v -33 13 -16
v -33 14 -7
v -33 14 -16
v -36 15 -4
v -36 15 -5
v -36 16 -4
v -36 16 -5
v -34 10 -4
v -34 10 -6
v -34 11 -3
v -34 11 -4
v -34 11 -6
v -34 11 -7
v -34 12 -2
v -34 12 -3
v -34 12 -4
v -34 12 -6
v -34 12 -7
v -34 13 -7
v -34 13 -16
v -34 14 -2
v -34 14 -3
v -34 14 -7
v -34 14 -16
v -33 11 -4
v -33 11 -6
v -33 12 -3
v -33 12 -4
v -33 12 -6
v -33 12 -16
v -33 13 -3
v -33 13 -4
v -33 13 -6
v -33 13 -16
v -33 14 -6
v -33 14 -16
v -33 15 -4
v -33 15 -5
v -33 15 -6
v -33 15 -16
v -33 16 -4
v -33 16 -5
v -32 12 -4
v -32 12 -6
v -32 13 -3
v -32 13 -4
v -32 13 -6
v -32 13 -16
v -32 14 -3
v -32 14 -6
v -32 14 -16
v -32 15 -3
v -32 15 -6
v -36 12 -2
v -36 14 -2
v -34 12 -2
v -34 14 -2
v -38 13 -3
v -38 14 -3
v -38 15 -3
v -37 12 -3
v -37 13 -3
v -36 11 -3
v -36 12 -3
v -36 14 -3
v -34 11 -3
v -34 12 -3
v -34 14 -3
v -33 12 -3
v -33 13 -3
v -32 13 -3
v -32 14 -3
v -32 15 -3
v -38 12 -4
v -38 13 -4
v -37 11 -4
v -37 12 -4
v -37 13 -4
v -37 15 -4
v -37 16 -4
v -36 10 -4
v -36 11 -4
v -36 12 -4
v -36 15 -4
v -36 16 -4
v -34 10 -4
v -34 11 -4
v -34 12 -4
v -34 15 -4
v -34 16 -4
v -33 11 -4
v -33 12 -4
v -33 13 -4
v -33 15 -4
v -33 16 -4
v -32 12 -4
v -32 13 -4
v -37 15 -5
v -37 16 -5
v -36 15 -5
v -36 16 -5
v -34 15 -5
v -34 16 -5
v -33 15 -5
v -33 16 -5
v -38 12 -6
v -38 14 -6
v -38 15 -6
v -37 11 -6
v -37 12 -6
v -36 10 -6
v -36 11 -6
v -36 13 -6
v -35 13 -6
v -35 14 -6
v -34 10 -6
v -34 11 -6
v -34 12 -6
v -34 14 -6
v -34 15 -6
v -33 11 -6
v -33 12 -6
v -33 13 -6
v -33 14 -6
v -33 15 -6
v -32 12 -6
v -32 13 -6
v -32 14 -6
v -32 15 -6
v -36 11 -7
v -36 12 -7
v -34 11 -7
v -34 12 -7
v -34 13 -7
v -34 14 -7
v -33 13 -7
v -33 14 -7
v -36 12 -8
v -36 13 -8
v -35 13 -8
v -34 12 -8
v -34 13 -8
v -35 13 -16
v -35 14 -16
v -34 12 -16
v -34 13 -16
v -34 14 -16
v -34 15 -16
v -33 12 -16
v -33 13 -16
v -33 14 -16
v -33 15 -16
v -32 13 -16
v -32 14 -16
v -36 10 -4
v -34 10 -4
v -36 10 -6
v -34 10 -6
v -36 11 -3
v -34 11 -3
v -37 11 -4
v -36 11 -4
v -34 11 -4
v -33 11 -4
v -37 11 -6
v -36 11 -6
v -34 11 -6
v -33 11 -6
v -36 11 -7
v -34 11 -7
v -36 12 -2
v -34 12 -2
v -37 12 -3
v -36 12 -3
v -34 12 -3
v -33 12 -3
v -38 12 -4
v -37 12 -4
v -36 12 -4
v -34 12 -4
v -33 12 -4
v -32 12 -4
v -38 12 -6
v -37 12 -6
v -34 12 -6
v -33 12 -6
v -32 12 -6
v -36 12 -7
v -34 12 -7
v -36 12 -8
v -34 12 -8
v -34 12 -16
v -33 12 -16
v -38 13 -3
v -37 13 -3
v -33 13 -3
v -32 13 -3
v -38 13 -4
v -37 13 -4
v -33 13 -4
v -32 13 -4
v -33 13 -6
v -32 13 -6
v -35 13 -8
v -34 13 -8
v -35 13 -16
v -34 13 -16
v -33 13 -16
v -32 13 -16
v -34 14 -7
v -33 14 -7
v -34 14 -16
v -33 14 -16
v -36 13 -6
v -35 13 -6
v -34 13 -7
v -33 13 -7
v -36 13 -8
v -35 13 -8
v -34 13 -16
v -33 13 -16
v -36 14 -2
v -34 14 -2
v -36 14 -3
v -34 14 -3
v -35 14 -6
v -34 14 -6
v -33 14 -6
v -32 14 -6
v -35 14 -16
v -34 14 -16
v -33 14 -16
v -32 14 -16
v -38 15 -3
v -32 15 -3
v -37 15 -4
v -36 15 -4
v -34 15 -4
v -33 15 -4
v -37 15 -5
v -36 15 -5
v -34 15 -5
v -33 15 -5
v -38 15 -6
v -34 15 -6
v -33 15 -6
v -32 15 -6
v -34 15 -16
v -33 15 -16
v -37 16 -4
v -36 16 -4
v -34 16 -4
v -33 16 -4
v -37 16 -5
v -36 16 -5
v -34 16 -5
v -33 16 -5

# faces
f 4/1/1 2/1/1 1/1/1
f 5/1/1 4/1/1 3/1/1
f 6/1/1 2/1/1 4/1/1
f 6/1/1 4/1/1 5/1/1
f 7/4/1 6/4/1 5/4/1
f 8/4/1 6/4/1 7/4/1
f 12/1/1 10/1/1 9/1/1
f 13/1/1 10/1/1 12/1/1
f 14/1/1 12/1/1 11/1/1
f 15/1/1 12/1/1 14/1/1
f 18/2/1 17/2/1 16/2/1
f 19/2/1 17/2/1 18/2/1
f 23/3/1 21/3/1 20/3/1
f 24/3/1 21/3/1 23/3/1
f 27/1/1 23/1/1 22/1/1
f 28/1/1 23/1/1 27/1/1
f 29/1/1 25/1/1 24/1/1
f 31/1/1 30/1/1 29/1/1
f 31/1/1 29/1/1 24/1/1
f 32/1/1 30/1/1 31/1/1
f 33/1/1 27/1/1 26/1/1
f 34/1/1 27/1/1 33/1/1
f 38/2/1 36/2/1 35/2/1
f 38/2/1 37/2/1 36/2/1
f 39/2/1 37/2/1 38/2/1
f 42/2/1 41/2/1 40/2/1
f 43/2/1 41/2/1 42/2/1
f 48/2/1 45/2/1 44/2/1
f 49/2/1 45/2/1 48/2/1
f 50/2/1 47/2/1 46/2/1
f 51/2/1 47/2/1 50/2/1
f 54/2/1 53/2/1 52/2/1
f 55/2/1 53/2/1 54/2/1
f 56/2/2 57/2/2 58/2/2
f 58/2/2 57/2/2 59/2/2
f 60/3/2 61/3/2 63/3/2
f 63/3/2 61/3/2 64/3/2
f 62/1/2 63/1/2 67/1/2
f 67/1/2 63/1/2 68/1/2
f 64/1/2 65/1/2 69/1/2
f 69/1/2 65/1/2 70/1/2
f 66/1/2 67/1/2 73/1/2
f 73/1/2 67/1/2 74/1/2
f 71/2/2 72/2/2 75/2/2
f 75/2/2 72/2/2 76/2/2
f 77/1/2 78/1/2 80/1/2
f 80/1/2 78/1/2 81/1/2
f 79/1/2 80/1/2 83/1/2
f 83/1/2 80/1/2 84/1/2
f 81/2/2 82/2/2 85/2/2
f 85/2/2 82/2/2 86/2/2
f 87/2/2 88/2/2 91/2/2
f 91/2/2 88/2/2 92/2/2
f 89/2/2 90/2/2 93/2/2
f 93/2/2 90/2/2 94/2/2
f 95/1/2 96/1/2 98/1/2
f 98/1/2 96/1/2 99/1/2
f 97/1/2 98/1/2 101/1/2
f 98/1/2 99/1/2 101/1/2
f 99/2/2 100/2/2 102/2/2
f 101/1/2 99/1/2 102/1/2
f 102/2/2 100/2/2 103/2/2
f 101/4/2 102/4/2 104/4/2
f 104/4/2 102/4/2 105/4/2
f 108/1/3 107/1/3 106/1/3
f 109/1/3 107/1/3 108/1/3
f 114/1/3 111/1/3 110/1/3
f 116/1/3 114/1/3 113/1/3
f 117/4/3 112/4/3 111/4/3
f 117/1/3 111/1/3 114/1/3
f 117/1/3 114/1/3 116/1/3
f 118/1/3 116/1/3 115/1/3
f 119/1/3 116/1/3 118/1/3
f 120/4/3 112/4/3 117/4/3
f 121/1/3 120/1/3 119/1/3
f 122/1/3 120/1/3 121/1/3
f 123/1/3 120/1/3 122/1/3
f 124/4/3 112/4/3 120/4/3
f 124/1/3 120/1/3 123/1/3
f 125/4/3 112/4/3 124/4/3
f 129/1/3 127/1/3 126/1/3
f 130/1/3 127/1/3 129/1/3
f 134/1/3 129/1/3 128/1/3
f 135/1/3 129/1/3 134/1/3
f 136/2/3 132/2/3 131/2/3
f 137/2/3 132/2/3 136/2/3
f 138/3/3 134/3/3 133/3/3
f 139/3/3 134/3/3 138/3/3
f 143/1/3 140/1/3 139/1/3
f 144/1/3 140/1/3 143/1/3
f 146/2/3 142/2/3 141/2/3
f 147/2/3 142/2/3 146/2/3
f 148/1/3 145/1/3 144/1/3
f 149/1/3 145/1/3 148/1/3
f 150/2/4 151/2/4 152/2/4
f 152/2/4 151/2/4 153/2/4
f 154/2/4 155/2/4 156/2/4
f 156/2/4 155/2/4 157/2/4
f 158/1/4 159/1/4 162/1/4
f 161/1/4 162/1/4 164/1/4
f 162/1/4 159/1/4 165/1/4
f 164/1/4 162/1/4 165/1/4
f 165/1/4 159/1/4 166/1/4
f 159/4/4 160/4/4 167/4/4
f 166/1/4 159/1/4 167/1/4
f 163/3/4 164/3/4 168/3/4
f 168/3/4 164/3/4 169/3/4
f 167/4/4 160/4/4 171/4/4
f 171/4/4 160/4/4 172/4/4
f 169/1/4 170/1/4 173/1/4
f 173/1/4 170/1/4 174/1/4
f 174/1/4 175/1/4 178/1/4
f 178/1/4 175/1/4 179/1/4
f 176/4/4 177/4/4 180/4/4
f 180/4/4 177/4/4 181/4/4
f 182/1/4 183/1/4 184/1/4
f 184/1/4 183/1/4 185/1/4
f 186/2/4 187/2/4 188/2/4
f 188/2/4 187/2/4 189/2/4
f 190/1/4 191/1/4 192/1/4
f 190/1/4 192/1/4 193/1/4
f 193/1/4 192/1/4 194/1/4
f 195/2/4 196/2/4 198/2/4
f 198/2/4 196/2/4 199/2/4
f 197/2/4 198/2/4 201/2/4
f 201/2/4 198/2/4 202/2/4
f 199/2/4 200/2/4 203/2/4
f 203/2/4 200/2/4 204/2/4
f 202/2/4 203/2/4 205/2/4
f 205/2/4 203/2/4 206/2/4
f 209/3/5 208/3/5 207/3/5
f 210/3/5 208/3/5 209/3/5
f 214/1/5 212/1/5 211/1/5
f 215/1/5 212/1/5 214/1/5
f 217/1/5 214/1/5 213/1/5
f 218/1/5 214/1/5 217/1/5
f 219/1/5 216/1/5 215/1/5
f 220/1/5 216/1/5 219/1/5
f 221/1/5 219/1/5 218/1/5
f 222/1/5 219/1/5 221/1/5
f 226/1/5 224/1/5 223/1/5
f 227/1/5 224/1/5 226/1/5
f 230/1/5 226/1/5 225/1/5
f 231/1/5 226/1/5 230/1/5
f 232/1/5 228/1/5 227/1/5
f 233/1/5 228/1/5 232/1/5
f 235/1/5 230/1/5 229/1/5
f 236/1/5 230/1/5 235/1/5
f 238/1/5 234/1/5 233/1/5
f 239/1/5 234/1/5 238/1/5
f 241/2/5 238/2/5 237/2/5
f 242/1/5 241/1/5 240/1/5
f 243/2/5 238/2/5 241/2/5
f 243/1/5 241/1/5 242/1/5
f 244/2/5 238/2/5 243/2/5
f 245/2/5 238/2/5 244/2/5
f 250/1/5 247/1/5 246/1/5
f 251/1/5 247/1/5 250/1/5
f 252/1/5 249/1/5 248/1/5
f 253/1/5 249/1/5 252/1/5
f 258/2/5 257/2/5 256/2/5
f 259/2/5 257/2/5 258/2/5
f 260/2/5 255/2/5 254/2/5
f 261/2/5 255/2/5 260/2/5
f 264/2/5 263/2/5 262/2/5
f 265/2/5 263/2/5 264/2/5
f 266/1/6 267/1/6 270/1/6
f 270/1/6 267/1/6 271/1/6
f 268/2/6 269/2/6 272/2/6
f 272/2/6 269/2/6 273/2/6
f 274/1/6 275/1/6 276/1/6
f 276/1/6 275/1/6 277/1/6
f 278/2/6 279/2/6 282/2/6
f 282/2/6 279/2/6 283/2/6
f 280/2/6 281/2/6 284/2/6
f 284/2/6 281/2/6 285/2/6
f 286/4/6 287/4/6 288/4/6
f 288/4/6 287/4/6 289/4/6
f 289/4/6 287/4/6 290/4/6
f 290/4/6 287/4/6 291/4/6
f 286/4/6 288/4/6 292/4/6
f 289/4/6 290/4/6 293/4/6
f 293/4/6 290/4/6 294/4/6
f 291/4/6 287/4/6 295/4/6
f 293/4/6 294/4/6 296/4/6
f 294/4/6 295/4/6 296/4/6
f 286/4/6 292/4/6 296/4/6
f 292/4/6 293/4/6 296/4/6
f 296/4/6 295/4/6 297/4/6
f 295/4/6 287/4/6 298/4/6
f 297/4/6 295/4/6 298/4/6
f 298/4/6 287/4/6 299/4/6
f 297/2/6 298/2/6 300/2/6
f 300/2/6 298/2/6 301/2/6
f 302/2/6 303/2/6 306/2/6
f 306/2/6 303/2/6 307/2/6
f 304/2/6 305/2/6 308/2/6
f 308/2/6 305/2/6 309/2/6
