# MagicaVoxel @ Ephtracy

# material
mtllib BulletTurretBase.mtl
usemtl palette

# normals
vn -1 0 0
vn 1 0 0
vn 0 0 1
vn 0 0 -1
vn 0 -1 0
vn 0 1 0

# texcoords
vt 0.857422 0.5
vt 0.958984 0.5
vt 0.974609 0.5
vt 0.990234 0.5

# verts
v 0 0 -0
v 0 0 -10
v 0 1 -1
v 0 1 -9
v 0 2 -2
v 0 2 -8
v 0 3 -3
v 0 3 -7
v 0 4 -0
v 0 4 -1
v 0 4 -4
v 0 4 -6
v 0 4 -9
v 0 4 -10
v 0 6 -0
v 0 6 -1
v 0 6 -4
v 0 6 -6
v 0 6 -9
v 0 6 -10
v 0 7 -3
v 0 7 -7
v 0 8 -2
v 0 8 -8
v 0 9 -1
v 0 9 -4
v 0 9 -6
v 0 9 -9
v 0 10 -0
v 0 10 -4
v 0 10 -6
v 0 10 -10
v 1 1 -1
v 1 1 -9
v 1 2 -2
v 1 2 -8
v 1 3 -3
v 1 3 -7
v 1 4 -1
v 1 4 -4
v 1 4 -6
v 1 4 -9
v 1 6 -1
v 1 6 -4
v 1 6 -6
v 1 6 -9
v 1 7 -3
v 1 7 -7
v 1 8 -2
v 1 8 -8
v 1 9 -1
v 1 9 -4
v 1 9 -6
v 1 9 -9
v 1 10 -4
v 1 10 -6
v 2 2 -0
v 2 2 -1
v 2 2 -9
v 2 2 -10
v 2 8 -0
v 2 8 -1
v 2 8 -9
v 2 8 -10
v 4 4 -0
v 4 4 -1
v 4 4 -9
v 4 4 -10
v 4 6 -0
v 4 6 -1
v 4 6 -9
v 4 6 -10
v 6 0 -9
v 6 0 -10
v 6 1 -9
v 6 1 -10
v 6 9 -0
v 6 9 -1
v 6 9 -9
v 6 9 -10
v 6 10 -0
v 6 10 -1
v 6 10 -9
v 6 10 -10
v 7 3 -0
v 7 3 -1
v 7 3 -9
v 7 3 -10
v 7 7 -0
v 7 7 -1
v 7 7 -9
v 7 7 -10
v 9 1 -0
v 9 1 -1
v 9 1 -9
v 9 1 -10
v 9 4 -0
v 9 4 -1
v 9 4 -9
v 9 4 -10
v 9 6 -0
v 9 6 -1
v 9 6 -9
v 9 6 -10
v 9 9 -0
v 9 9 -1
v 9 9 -9
v 9 9 -10
v 1 1 -0
v 1 1 -1
v 1 1 -9
v 1 1 -10
v 1 4 -0
v 1 4 -1
v 1 4 -9
v 1 4 -10
v 1 6 -0
v 1 6 -1
v 1 6 -9
v 1 6 -10
v 1 9 -0
v 1 9 -1
v 1 9 -9
v 1 9 -10
v 3 3 -0
v 3 3 -1
v 3 3 -9
v 3 3 -10
v 3 7 -0
v 3 7 -1
v 3 7 -9
v 3 7 -10
v 4 0 -9
v 4 0 -10
v 4 1 -9
v 4 1 -10
v 4 9 -0
v 4 9 -1
v 4 9 -9
v 4 9 -10
v 4 10 -0
v 4 10 -1
v 4 10 -9
v 4 10 -10
v 6 4 -0
v 6 4 -1
v 6 4 -9
v 6 4 -10
v 6 6 -0
v 6 6 -1
v 6 6 -9
v 6 6 -10
v 8 2 -0
v 8 2 -1
v 8 2 -9
v 8 2 -10
v 8 8 -0
v 8 8 -1
v 8 8 -9
v 8 8 -10
v 9 1 -1
v 9 1 -9
v 9 2 -2
v 9 2 -8
v 9 3 -3
v 9 3 -7
v 9 4 -1
v 9 4 -4
v 9 4 -6
v 9 4 -9
v 9 6 -1
v 9 6 -4
v 9 6 -6
v 9 6 -9
v 9 7 -3
v 9 7 -7
v 9 8 -2
v 9 8 -8
v 9 9 -1
v 9 9 -4
v 9 9 -6
v 9 9 -9
v 9 10 -4
v 9 10 -6
v 10 0 -0
v 10 0 -10
v 10 1 -1
v 10 1 -9
v 10 2 -2
v 10 2 -8
v 10 3 -3
v 10 3 -7
v 10 4 -0
v 10 4 -1
v 10 4 -4
v 10 4 -6
v 10 4 -9
v 10 4 -10
v 10 6 -0
v 10 6 -1
v 10 6 -4
v 10 6 -6
v 10 6 -9
v 10 6 -10
v 10 7 -3
v 10 7 -7
v 10 8 -2
v 10 8 -8
v 10 9 -1
v 10 9 -4
v 10 9 -6
v 10 9 -9
v 10 10 -0
v 10 10 -4
v 10 10 -6
v 10 10 -10
v 0 0 -0
v 0 4 -0
v 0 6 -0
v 0 10 -0
v 1 1 -0
v 1 4 -0
v 1 6 -0
v 1 9 -0
v 2 2 -0
v 2 8 -0
v 3 3 -0
v 3 7 -0
v 4 4 -0
v 4 6 -0
v 4 9 -0
v 4 10 -0
v 6 4 -0
v 6 6 -0
v 6 9 -0
v 6 10 -0
v 7 3 -0
v 7 7 -0
v 8 2 -0
v 8 8 -0
v 9 1 -0
v 9 4 -0
v 9 6 -0
v 9 9 -0
v 10 0 -0
v 10 4 -0
v 10 6 -0
v 10 10 -0
v 1 1 -1
v 1 4 -1
v 1 6 -1
v 1 9 -1
v 2 2 -1
v 2 8 -1
v 3 3 -1
v 3 7 -1
v 4 4 -1
v 4 6 -1
v 4 9 -1
v 4 10 -1
v 6 4 -1
v 6 6 -1
v 6 9 -1
v 6 10 -1
v 7 3 -1
v 7 7 -1
v 8 2 -1
v 8 8 -1
v 9 1 -1
v 9 4 -1
v 9 6 -1
v 9 9 -1
v 0 2 -2
v 0 8 -2
v 1 2 -2
v 1 8 -2
v 9 2 -2
v 9 8 -2
v 10 2 -2
v 10 8 -2
v 0 4 -4
v 0 6 -4
v 1 4 -4
v 1 6 -4
v 9 4 -4
v 9 6 -4
v 10 4 -4
v 10 6 -4
v 0 9 -6
v 0 10 -6
v 1 9 -6
v 1 10 -6
v 9 9 -6
v 9 10 -6
v 10 9 -6
v 10 10 -6
v 0 3 -7
v 0 7 -7
v 1 3 -7
v 1 7 -7
v 9 3 -7
v 9 7 -7
v 10 3 -7
v 10 7 -7
v 0 1 -9
v 0 4 -9
v 0 6 -9
v 0 9 -9
v 1 1 -9
v 1 4 -9
v 1 6 -9
v 1 9 -9
v 9 1 -9
v 9 4 -9
v 9 6 -9
v 9 9 -9
v 10 1 -9
v 10 4 -9
v 10 6 -9
v 10 9 -9
v 0 1 -1
v 0 4 -1
v 0 6 -1
v 0 9 -1
v 1 1 -1
v 1 4 -1
v 1 6 -1
v 1 9 -1
v 9 1 -1
v 9 4 -1
v 9 6 -1
v 9 9 -1
v 10 1 -1
v 10 4 -1
v 10 6 -1
v 10 9 -1
v 0 3 -3
v 0 7 -3
v 1 3 -3
v 1 7 -3
v 9 3 -3
v 9 7 -3
v 10 3 -3
v 10 7 -3
v 0 9 -4
v 0 10 -4
v 1 9 -4
v 1 10 -4
v 9 9 -4
v 9 10 -4
v 10 9 -4
v 10 10 -4
v 0 4 -6
v 0 6 -6
v 1 4 -6
v 1 6 -6
v 9 4 -6
v 9 6 -6
v 10 4 -6
v 10 6 -6
v 0 2 -8
v 0 8 -8
v 1 2 -8
v 1 8 -8
v 9 2 -8
v 9 8 -8
v 10 2 -8
v 10 8 -8
v 1 1 -9
v 1 4 -9
v 1 6 -9
v 1 9 -9
v 2 2 -9
v 2 8 -9
v 3 3 -9
v 3 7 -9
v 4 0 -9
v 4 1 -9
v 4 4 -9
v 4 6 -9
v 4 9 -9
v 4 10 -9
v 6 0 -9
v 6 1 -9
v 6 4 -9
v 6 6 -9
v 6 9 -9
v 6 10 -9
v 7 3 -9
v 7 7 -9
v 8 2 -9
v 8 8 -9
v 9 1 -9
v 9 4 -9
v 9 6 -9
v 9 9 -9
v 0 0 -10
v 0 4 -10
v 0 6 -10
v 0 10 -10
v 1 1 -10
v 1 4 -10
v 1 6 -10
v 1 9 -10
v 2 2 -10
v 2 8 -10
v 3 3 -10
v 3 7 -10
v 4 0 -10
v 4 1 -10
v 4 4 -10
v 4 6 -10
v 4 9 -10
v 4 10 -10
v 6 0 -10
v 6 1 -10
v 6 4 -10
v 6 6 -10
v 6 9 -10
v 6 10 -10
v 7 3 -10
v 7 7 -10
v 8 2 -10
v 8 8 -10
v 9 1 -10
v 9 4 -10
v 9 6 -10
v 9 9 -10
v 10 0 -10
v 10 4 -10
v 10 6 -10
v 10 10 -10
v 0 0 -0
v 10 0 -0
v 1 0 -1
v 9 0 -1
v 4 0 -8
v 6 0 -8
v 1 0 -9
v 4 0 -9
v 6 0 -9
v 9 0 -9
v 0 0 -10
v 4 0 -10
v 6 0 -10
v 10 0 -10
v 2 2 -0
v 8 2 -0
v 2 2 -1
v 8 2 -1
v 0 2 -2
v 1 2 -2
v 9 2 -2
v 10 2 -2
v 0 2 -8
v 1 2 -8
v 9 2 -8
v 10 2 -8
v 2 2 -9
v 8 2 -9
v 2 2 -10
v 8 2 -10
v 4 4 -0
v 6 4 -0
v 4 4 -1
v 6 4 -1
v 0 4 -4
v 1 4 -4
v 9 4 -4
v 10 4 -4
v 0 4 -6
v 1 4 -6
v 9 4 -6
v 10 4 -6
v 4 4 -9
v 6 4 -9
v 4 4 -10
v 6 4 -10
v 0 6 -0
v 1 6 -0
v 9 6 -0
v 10 6 -0
v 0 6 -1
v 1 6 -1
v 9 6 -1
v 10 6 -1
v 0 6 -9
v 1 6 -9
v 9 6 -9
v 10 6 -9
v 0 6 -10
v 1 6 -10
v 9 6 -10
v 10 6 -10
v 3 7 -0
v 7 7 -0
v 3 7 -1
v 7 7 -1
v 0 7 -3
v 1 7 -3
v 9 7 -3
v 10 7 -3
v 0 7 -7
v 1 7 -7
v 9 7 -7
v 10 7 -7
v 3 7 -9
v 7 7 -9
v 3 7 -10
v 7 7 -10
v 1 9 -0
v 4 9 -0
v 6 9 -0
v 9 9 -0
v 0 9 -1
v 1 9 -1
v 4 9 -1
v 6 9 -1
v 9 9 -1
v 10 9 -1
v 0 9 -4
v 1 9 -4
v 9 9 -4
v 10 9 -4
v 0 9 -6
v 1 9 -6
v 9 9 -6
v 10 9 -6
v 0 9 -9
v 1 9 -9
v 4 9 -9
v 6 9 -9
v 9 9 -9
v 10 9 -9
v 1 9 -10
v 4 9 -10
v 6 9 -10
v 9 9 -10
v 1 1 -0
v 9 1 -0
v 0 1 -1
v 1 1 -1
v 9 1 -1
v 10 1 -1
v 0 1 -9
v 1 1 -9
v 4 1 -9
v 6 1 -9
v 9 1 -9
v 10 1 -9
v 1 1 -10
v 4 1 -10
v 6 1 -10
v 9 1 -10
v 3 3 -0
v 7 3 -0
v 3 3 -1
v 7 3 -1
v 0 3 -3
v 1 3 -3
v 9 3 -3
v 10 3 -3
v 0 3 -7
v 1 3 -7
v 9 3 -7
v 10 3 -7
v 3 3 -9
v 7 3 -9
v 3 3 -10
v 7 3 -10
v 0 4 -0
v 1 4 -0
v 9 4 -0
v 10 4 -0
v 0 4 -1
v 1 4 -1
v 9 4 -1
v 10 4 -1
v 0 4 -9
v 1 4 -9
v 9 4 -9
v 10 4 -9
v 0 4 -10
v 1 4 -10
v 9 4 -10
v 10 4 -10
v 4 6 -0
v 6 6 -0
v 4 6 -1
v 6 6 -1
v 0 6 -4
v 1 6 -4
v 9 6 -4
v 10 6 -4
v 0 6 -6
v 1 6 -6
v 9 6 -6
v 10 6 -6
v 4 6 -9
v 6 6 -9
v 4 6 -10
v 6 6 -10
v 2 8 -0
v 8 8 -0
v 2 8 -1
v 8 8 -1
v 0 8 -2
v 1 8 -2
v 9 8 -2
v 10 8 -2
v 0 8 -8
v 1 8 -8
v 9 8 -8
v 10 8 -8
v 2 8 -9
v 8 8 -9
v 2 8 -10
v 8 8 -10
v 0 10 -0
v 4 10 -0
v 6 10 -0
v 10 10 -0
v 1 10 -1
v 4 10 -1
v 6 10 -1
v 9 10 -1
v 0 10 -4
v 1 10 -4
v 4 10 -4
v 6 10 -4
v 9 10 -4
v 10 10 -4
v 0 10 -6
v 1 10 -6
v 4 10 -6
v 6 10 -6
v 9 10 -6
v 10 10 -6
v 1 10 -9
v 4 10 -9
v 6 10 -9
v 9 10 -9
v 0 10 -10
v 4 10 -10
v 6 10 -10
v 10 10 -10

# faces
f 3/1/1 2/1/1 1/1/1
f 4/1/1 2/1/1 3/1/1
f 7/1/1 6/1/1 5/1/1
f 8/1/1 6/1/1 7/1/1
f 9/1/1 3/1/1 1/1/1
f 10/1/1 3/1/1 9/1/1
f 13/1/1 2/1/1 4/1/1
f 14/1/1 2/1/1 13/1/1
f 17/2/1 12/2/1 11/2/1
f 18/2/1 12/2/1 17/2/1
f 21/1/1 7/1/1 5/1/1
f 22/1/1 6/1/1 8/1/1
f 23/1/1 21/1/1 5/1/1
f 23/1/1 22/1/1 21/1/1
f 24/1/1 6/1/1 22/1/1
f 24/1/1 22/1/1 23/1/1
f 25/1/1 16/1/1 15/1/1
f 28/1/1 20/1/1 19/1/1
f 29/1/1 26/1/1 25/1/1
f 29/1/1 25/1/1 15/1/1
f 30/1/1 26/1/1 29/1/1
f 31/1/1 28/1/1 27/1/1
f 32/1/1 20/1/1 28/1/1
f 32/1/1 28/1/1 31/1/1
f 35/4/1 34/4/1 33/4/1
f 36/4/1 34/4/1 35/4/1
f 39/4/1 35/4/1 33/4/1
f 40/4/1 38/4/1 37/4/1
f 41/4/1 38/4/1 40/4/1
f 42/4/1 34/4/1 36/4/1
f 43/4/1 35/4/1 39/4/1
f 44/4/1 40/4/1 37/4/1
f 45/4/1 38/4/1 41/4/1
f 46/4/1 42/4/1 36/4/1
f 47/4/1 44/4/1 37/4/1
f 47/4/1 45/4/1 44/4/1
f 48/4/1 38/4/1 45/4/1
f 48/4/1 45/4/1 47/4/1
f 49/4/1 35/4/1 43/4/1
f 50/4/1 46/4/1 36/4/1
f 51/4/1 49/4/1 43/4/1
f 51/4/1 50/4/1 49/4/1
f 52/4/1 50/4/1 51/4/1
f 53/4/1 50/4/1 52/4/1
f 54/4/1 46/4/1 50/4/1
f 54/4/1 50/4/1 53/4/1
f 55/4/1 53/4/1 52/4/1
f 56/4/1 53/4/1 55/4/1
f 61/1/1 58/1/1 57/1/1
f 62/1/1 58/1/1 61/1/1
f 63/1/1 60/1/1 59/1/1
f 64/1/1 60/1/1 63/1/1
f 69/2/1 66/2/1 65/2/1
f 70/2/1 66/2/1 69/2/1
f 71/2/1 68/2/1 67/2/1
f 72/2/1 68/2/1 71/2/1
f 75/1/1 74/1/1 73/1/1
f 76/1/1 74/1/1 75/1/1
f 81/1/1 78/1/1 77/1/1
f 82/1/1 78/1/1 81/1/1
f 83/1/1 80/1/1 79/1/1
f 84/1/1 80/1/1 83/1/1
f 89/1/1 86/1/1 85/1/1
f 90/1/1 86/1/1 89/1/1
f 91/1/1 88/1/1 87/1/1
f 92/1/1 88/1/1 91/1/1
f 97/1/1 94/1/1 93/1/1
f 98/1/1 94/1/1 97/1/1
f 99/1/1 96/1/1 95/1/1
f 100/1/1 96/1/1 99/1/1
f 105/1/1 102/1/1 101/1/1
f 106/1/1 102/1/1 105/1/1
f 107/1/1 104/1/1 103/1/1
f 108/1/1 104/1/1 107/1/1
f 109/1/2 110/1/2 113/1/2
f 113/1/2 110/1/2 114/1/2
f 111/1/2 112/1/2 115/1/2
f 115/1/2 112/1/2 116/1/2
f 117/1/2 118/1/2 121/1/2
f 121/1/2 118/1/2 122/1/2
f 119/1/2 120/1/2 123/1/2
f 123/1/2 120/1/2 124/1/2
f 125/1/2 126/1/2 129/1/2
f 129/1/2 126/1/2 130/1/2
f 127/1/2 128/1/2 131/1/2
f 131/1/2 128/1/2 132/1/2
f 133/1/2 134/1/2 135/1/2
f 135/1/2 134/1/2 136/1/2
f 137/1/2 138/1/2 141/1/2
f 141/1/2 138/1/2 142/1/2
f 139/1/2 140/1/2 143/1/2
f 143/1/2 140/1/2 144/1/2
f 145/2/2 146/2/2 149/2/2
f 149/2/2 146/2/2 150/2/2
f 147/2/2 148/2/2 151/2/2
f 151/2/2 148/2/2 152/2/2
f 153/1/2 154/1/2 157/1/2
f 157/1/2 154/1/2 158/1/2
f 155/1/2 156/1/2 159/1/2
f 159/1/2 156/1/2 160/1/2
f 161/4/2 162/4/2 163/4/2
f 163/4/2 162/4/2 164/4/2
f 161/4/2 163/4/2 167/4/2
f 165/4/2 166/4/2 168/4/2
f 168/4/2 166/4/2 169/4/2
f 164/4/2 162/4/2 170/4/2
f 167/4/2 163/4/2 171/4/2
f 165/4/2 168/4/2 172/4/2
f 169/4/2 166/4/2 173/4/2
f 164/4/2 170/4/2 174/4/2
f 165/4/2 172/4/2 175/4/2
f 172/4/2 173/4/2 175/4/2
f 173/4/2 166/4/2 176/4/2
f 175/4/2 173/4/2 176/4/2
f 171/4/2 163/4/2 177/4/2
f 164/4/2 174/4/2 178/4/2
f 171/4/2 177/4/2 179/4/2
f 177/4/2 178/4/2 179/4/2
f 179/4/2 178/4/2 180/4/2
f 180/4/2 178/4/2 181/4/2
f 178/4/2 174/4/2 182/4/2
f 181/4/2 178/4/2 182/4/2
f 180/4/2 181/4/2 183/4/2
f 183/4/2 181/4/2 184/4/2
f 185/1/2 186/1/2 187/1/2
f 187/1/2 186/1/2 188/1/2
f 189/1/2 190/1/2 191/1/2
f 191/1/2 190/1/2 192/1/2
f 185/1/2 187/1/2 193/1/2
f 193/1/2 187/1/2 194/1/2
f 188/1/2 186/1/2 197/1/2
f 197/1/2 186/1/2 198/1/2
f 195/2/2 196/2/2 201/2/2
f 201/2/2 196/2/2 202/2/2
f 189/1/2 191/1/2 205/1/2
f 192/1/2 190/1/2 206/1/2
f 189/1/2 205/1/2 207/1/2
f 205/1/2 206/1/2 207/1/2
f 206/1/2 190/1/2 208/1/2
f 207/1/2 206/1/2 208/1/2
f 199/1/2 200/1/2 209/1/2
f 203/1/2 204/1/2 212/1/2
f 209/1/2 210/1/2 213/1/2
f 199/1/2 209/1/2 213/1/2
f 213/1/2 210/1/2 214/1/2
f 211/1/2 212/1/2 215/1/2
f 212/1/2 204/1/2 216/1/2
f 215/1/2 212/1/2 216/1/2
f 221/1/3 218/1/3 217/1/3
f 222/1/3 218/1/3 221/1/3
f 223/1/3 220/1/3 219/1/3
f 224/1/3 220/1/3 223/1/3
f 227/1/3 226/1/3 225/1/3
f 228/1/3 226/1/3 227/1/3
f 231/1/3 220/1/3 224/1/3
f 232/1/3 220/1/3 231/1/3
f 233/2/3 230/2/3 229/2/3
f 234/2/3 230/2/3 233/2/3
f 237/1/3 227/1/3 225/1/3
f 238/1/3 226/1/3 228/1/3
f 239/1/3 237/1/3 225/1/3
f 239/1/3 238/1/3 237/1/3
f 240/1/3 226/1/3 238/1/3
f 240/1/3 238/1/3 239/1/3
f 241/1/3 221/1/3 217/1/3
f 244/1/3 236/1/3 235/1/3
f 245/1/3 242/1/3 241/1/3
f 245/1/3 241/1/3 217/1/3
f 246/1/3 242/1/3 245/1/3
f 247/1/3 244/1/3 243/1/3
f 248/1/3 236/1/3 244/1/3
f 248/1/3 244/1/3 247/1/3
f 253/4/3 250/4/3 249/4/3
f 253/4/3 252/4/3 251/4/3
f 253/4/3 251/4/3 250/4/3
f 254/4/3 252/4/3 253/4/3
f 257/4/3 256/4/3 255/4/3
f 258/4/3 256/4/3 257/4/3
f 259/4/3 252/4/3 254/4/3
f 261/4/3 257/4/3 255/4/3
f 262/4/3 256/4/3 258/4/3
f 263/4/3 260/4/3 259/4/3
f 263/4/3 259/4/3 254/4/3
f 264/4/3 260/4/3 263/4/3
f 265/4/3 261/4/3 255/4/3
f 265/4/3 262/4/3 261/4/3
f 266/4/3 256/4/3 262/4/3
f 266/4/3 262/4/3 265/4/3
f 267/4/3 253/4/3 249/4/3
f 268/4/3 263/4/3 254/4/3
f 269/4/3 267/4/3 249/4/3
f 269/4/3 268/4/3 267/4/3
f 270/4/3 268/4/3 269/4/3
f 271/4/3 268/4/3 270/4/3
f 272/4/3 263/4/3 268/4/3
f 272/4/3 268/4/3 271/4/3
f 275/1/3 274/1/3 273/1/3
f 276/1/3 274/1/3 275/1/3
f 279/1/3 278/1/3 277/1/3
f 280/1/3 278/1/3 279/1/3
f 283/2/3 282/2/3 281/2/3
f 284/2/3 282/2/3 283/2/3
f 287/2/3 286/2/3 285/2/3
f 288/2/3 286/2/3 287/2/3
f 291/1/3 290/1/3 289/1/3
f 292/1/3 290/1/3 291/1/3
f 295/1/3 294/1/3 293/1/3
f 296/1/3 294/1/3 295/1/3
f 299/1/3 298/1/3 297/1/3
f 300/1/3 298/1/3 299/1/3
f 303/1/3 302/1/3 301/1/3
f 304/1/3 302/1/3 303/1/3
f 309/1/3 306/1/3 305/1/3
f 310/1/3 306/1/3 309/1/3
f 311/1/3 308/1/3 307/1/3
f 312/1/3 308/1/3 311/1/3
f 317/1/3 314/1/3 313/1/3
f 318/1/3 314/1/3 317/1/3
f 319/1/3 316/1/3 315/1/3
f 320/1/3 316/1/3 319/1/3
f 321/1/4 322/1/4 325/1/4
f 325/1/4 322/1/4 326/1/4
f 323/1/4 324/1/4 327/1/4
f 327/1/4 324/1/4 328/1/4
f 329/1/4 330/1/4 333/1/4
f 333/1/4 330/1/4 334/1/4
f 331/1/4 332/1/4 335/1/4
f 335/1/4 332/1/4 336/1/4
f 337/1/4 338/1/4 339/1/4
f 339/1/4 338/1/4 340/1/4
f 341/1/4 342/1/4 343/1/4
f 343/1/4 342/1/4 344/1/4
f 345/1/4 346/1/4 347/1/4
f 347/1/4 346/1/4 348/1/4
f 349/1/4 350/1/4 351/1/4
f 351/1/4 350/1/4 352/1/4
f 353/2/4 354/2/4 355/2/4
f 355/2/4 354/2/4 356/2/4
f 357/2/4 358/2/4 359/2/4
f 359/2/4 358/2/4 360/2/4
f 361/1/4 362/1/4 363/1/4
f 363/1/4 362/1/4 364/1/4
f 365/1/4 366/1/4 367/1/4
f 367/1/4 366/1/4 368/1/4
f 369/4/4 370/4/4 373/4/4
f 371/4/4 372/4/4 373/4/4
f 370/4/4 371/4/4 373/4/4
f 373/4/4 372/4/4 374/4/4
f 369/4/4 373/4/4 378/4/4
f 375/4/4 376/4/4 379/4/4
f 379/4/4 376/4/4 380/4/4
f 374/4/4 372/4/4 381/4/4
f 377/4/4 378/4/4 383/4/4
f 378/4/4 373/4/4 384/4/4
f 383/4/4 378/4/4 384/4/4
f 375/4/4 379/4/4 385/4/4
f 380/4/4 376/4/4 386/4/4
f 381/4/4 382/4/4 387/4/4
f 374/4/4 381/4/4 387/4/4
f 387/4/4 382/4/4 388/4/4
f 385/4/4 386/4/4 389/4/4
f 375/4/4 385/4/4 389/4/4
f 386/4/4 376/4/4 390/4/4
f 389/4/4 386/4/4 390/4/4
f 384/4/4 373/4/4 391/4/4
f 374/4/4 387/4/4 392/4/4
f 384/4/4 391/4/4 393/4/4
f 391/4/4 392/4/4 393/4/4
f 393/4/4 392/4/4 394/4/4
f 394/4/4 392/4/4 395/4/4
f 392/4/4 387/4/4 396/4/4
f 395/4/4 392/4/4 396/4/4
f 397/1/4 398/1/4 401/1/4
f 401/1/4 398/1/4 402/1/4
f 399/1/4 400/1/4 403/1/4
f 403/1/4 400/1/4 404/1/4
f 405/1/4 406/1/4 407/1/4
f 407/1/4 406/1/4 408/1/4
f 397/1/4 401/1/4 409/1/4
f 409/1/4 401/1/4 410/1/4
f 404/1/4 400/1/4 413/1/4
f 413/1/4 400/1/4 414/1/4
f 411/2/4 412/2/4 417/2/4
f 417/2/4 412/2/4 418/2/4
f 405/1/4 407/1/4 421/1/4
f 408/1/4 406/1/4 422/1/4
f 405/1/4 421/1/4 423/1/4
f 421/1/4 422/1/4 423/1/4
f 422/1/4 406/1/4 424/1/4
f 423/1/4 422/1/4 424/1/4
f 415/1/4 416/1/4 425/1/4
f 419/1/4 420/1/4 428/1/4
f 425/1/4 426/1/4 429/1/4
f 415/1/4 425/1/4 429/1/4
f 429/1/4 426/1/4 430/1/4
f 427/1/4 428/1/4 431/1/4
f 428/1/4 420/1/4 432/1/4
f 431/1/4 428/1/4 432/1/4
f 435/1/5 434/1/5 433/1/5
f 436/1/5 434/1/5 435/1/5
f 437/3/5 436/3/5 435/3/5
f 438/3/5 436/3/5 437/3/5
f 439/1/5 435/1/5 433/1/5
f 439/3/5 437/3/5 435/3/5
f 440/4/5 438/4/5 437/4/5
f 440/3/5 437/3/5 439/3/5
f 441/3/5 436/3/5 438/3/5
f 441/4/5 438/4/5 440/4/5
f 442/1/5 434/1/5 436/1/5
f 442/3/5 436/3/5 441/3/5
f 443/1/5 440/1/5 439/1/5
f 443/1/5 439/1/5 433/1/5
f 444/1/5 440/1/5 443/1/5
f 445/1/5 442/1/5 441/1/5
f 446/1/5 434/1/5 442/1/5
f 446/1/5 442/1/5 445/1/5
f 449/1/5 448/1/5 447/1/5
f 450/1/5 448/1/5 449/1/5
f 455/1/5 452/1/5 451/1/5
f 456/1/5 452/1/5 455/1/5
f 457/1/5 454/1/5 453/1/5
f 458/1/5 454/1/5 457/1/5
f 461/1/5 460/1/5 459/1/5
f 462/1/5 460/1/5 461/1/5
f 465/2/5 464/2/5 463/2/5
f 466/2/5 464/2/5 465/2/5
f 471/2/5 468/2/5 467/2/5
f 472/2/5 468/2/5 471/2/5
f 473/2/5 470/2/5 469/2/5
f 474/2/5 470/2/5 473/2/5
f 477/2/5 476/2/5 475/2/5
f 478/2/5 476/2/5 477/2/5
f 483/1/5 480/1/5 479/1/5
f 484/1/5 480/1/5 483/1/5
f 485/1/5 482/1/5 481/1/5
f 486/1/5 482/1/5 485/1/5
f 491/1/5 488/1/5 487/1/5
f 492/1/5 488/1/5 491/1/5
f 493/1/5 490/1/5 489/1/5
f 494/1/5 490/1/5 493/1/5
f 497/1/5 496/1/5 495/1/5
f 498/1/5 496/1/5 497/1/5
f 503/1/5 500/1/5 499/1/5
f 504/1/5 500/1/5 503/1/5
f 505/1/5 502/1/5 501/1/5
f 506/1/5 502/1/5 505/1/5
f 509/1/5 508/1/5 507/1/5
f 510/1/5 508/1/5 509/1/5
f 516/1/5 512/1/5 511/1/5
f 517/1/5 512/1/5 516/1/5
f 518/1/5 514/1/5 513/1/5
f 519/1/5 514/1/5 518/1/5
f 521/1/5 516/1/5 515/1/5
f 522/1/5 516/1/5 521/1/5
f 523/1/5 520/1/5 519/1/5
f 524/1/5 520/1/5 523/1/5
f 529/1/5 526/1/5 525/1/5
f 530/1/5 526/1/5 529/1/5
f 533/1/5 528/1/5 527/1/5
f 534/1/5 528/1/5 533/1/5
f 535/1/5 531/1/5 530/1/5
f 536/1/5 531/1/5 535/1/5
f 537/1/5 533/1/5 532/1/5
f 538/1/5 533/1/5 537/1/5
f 539/1/6 540/1/6 542/1/6
f 542/1/6 540/1/6 543/1/6
f 541/1/6 542/1/6 545/1/6
f 545/1/6 542/1/6 546/1/6
f 543/1/6 544/1/6 549/1/6
f 549/1/6 544/1/6 550/1/6
f 546/1/6 547/1/6 551/1/6
f 551/1/6 547/1/6 552/1/6
f 548/1/6 549/1/6 553/1/6
f 553/1/6 549/1/6 554/1/6
f 555/1/6 556/1/6 557/1/6
f 557/1/6 556/1/6 558/1/6
f 559/1/6 560/1/6 563/1/6
f 563/1/6 560/1/6 564/1/6
f 561/1/6 562/1/6 565/1/6
f 565/1/6 562/1/6 566/1/6
f 567/1/6 568/1/6 569/1/6
f 569/1/6 568/1/6 570/1/6
f 571/1/6 572/1/6 575/1/6
f 575/1/6 572/1/6 576/1/6
f 573/1/6 574/1/6 577/1/6
f 577/1/6 574/1/6 578/1/6
f 579/1/6 580/1/6 583/1/6
f 583/1/6 580/1/6 584/1/6
f 581/1/6 582/1/6 585/1/6
f 585/1/6 582/1/6 586/1/6
f 587/2/6 588/2/6 589/2/6
f 589/2/6 588/2/6 590/2/6
f 591/2/6 592/2/6 595/2/6
f 595/2/6 592/2/6 596/2/6
f 593/2/6 594/2/6 597/2/6
f 597/2/6 594/2/6 598/2/6
f 599/2/6 600/2/6 601/2/6
f 601/2/6 600/2/6 602/2/6
f 603/1/6 604/1/6 605/1/6
f 605/1/6 604/1/6 606/1/6
f 607/1/6 608/1/6 611/1/6
f 611/1/6 608/1/6 612/1/6
f 609/1/6 610/1/6 613/1/6
f 613/1/6 610/1/6 614/1/6
f 615/1/6 616/1/6 617/1/6
f 617/1/6 616/1/6 618/1/6
f 619/1/6 620/1/6 623/1/6
f 623/1/6 620/1/6 624/1/6
f 621/1/6 622/1/6 625/1/6
f 625/1/6 622/1/6 626/1/6
f 619/1/6 623/1/6 627/1/6
f 623/4/6 624/4/6 628/4/6
f 627/1/6 623/1/6 628/1/6
f 624/4/6 625/4/6 628/4/6
f 625/4/6 626/4/6 628/4/6
f 628/4/6 626/4/6 629/4/6
f 629/4/6 626/4/6 630/4/6
f 626/1/6 622/1/6 631/1/6
f 630/4/6 626/4/6 631/4/6
f 631/1/6 622/1/6 632/1/6
f 628/4/6 629/4/6 634/4/6
f 629/3/6 630/3/6 635/3/6
f 634/4/6 629/4/6 635/4/6
f 630/4/6 631/4/6 636/4/6
f 635/3/6 630/3/6 636/3/6
f 636/4/6 631/4/6 637/4/6
f 633/1/6 634/1/6 639/1/6
f 634/4/6 635/4/6 639/4/6
f 636/4/6 637/4/6 639/4/6
f 635/4/6 636/4/6 639/4/6
f 639/4/6 637/4/6 640/4/6
f 640/4/6 637/4/6 641/4/6
f 637/1/6 638/1/6 642/1/6
f 641/4/6 637/4/6 642/4/6
f 633/1/6 639/1/6 643/1/6
f 639/1/6 640/1/6 643/1/6
f 643/1/6 640/1/6 644/1/6
f 641/1/6 642/1/6 645/1/6
f 642/1/6 638/1/6 646/1/6
f 645/1/6 642/1/6 646/1/6
